<svg width="30" height="30" viewBox="0 0 30 30" fill="none" xmlns="http://www.w3.org/2000/svg">
<path d="M28.125 1.875H18.75V0.9375C18.75 0.688896 18.6512 0.450332 18.4754 0.274554C18.2997 0.098775 18.0611 0 17.8125 0H12.1875C11.9389 0 11.7003 0.098775 11.5246 0.274554C11.3488 0.450332 11.25 0.688896 11.25 0.9375V1.875H1.875C1.37779 1.875 0.900857 2.07254 0.549107 2.42411C0.197545 2.77588 0 3.2528 0 3.75V22.5C0 22.9972 0.197545 23.4741 0.549107 23.8259C0.900879 24.1775 1.3778 24.375 1.875 24.375H8.05286L4.02161 28.3968L5.34354 29.7188L10.6967 24.375H14.0623V30H15.9373V24.375H19.3029L24.656 29.7282L25.978 28.4063L21.9467 24.375H28.1246C28.6218 24.375 29.0987 24.1775 29.4505 23.8259C29.802 23.4741 29.9996 22.9972 29.9996 22.5V3.75C29.9996 3.25279 29.802 2.77586 29.4505 2.42411C29.0987 2.07254 28.6218 1.875 28.1246 1.875H28.125ZM28.125 22.5H1.875V3.75H28.125V22.5Z" fill="#242423"/>
<path d="M17.4282 12.1875H12.1877C11.9384 12.186 11.699 12.284 11.522 12.4593L5.89697 18.0843L7.2189 19.4063L12.5721 14.0625H17.8127C18.0619 14.064 18.3013 13.966 18.4783 13.7907L22.5002 9.75943V12.1875H24.3752V7.5C24.3752 7.2514 24.2764 7.01283 24.1006 6.83705C23.9248 6.66128 23.6863 6.5625 23.4377 6.5625H18.7502V8.4375H21.1782L17.4282 12.1875Z" fill="#242423"/>
</svg>
