<svg width="35" height="28" viewBox="0 0 35 28" fill="none" xmlns="http://www.w3.org/2000/svg">
<path d="M10.2959 27.215C10.2959 27.7475 10.4921 27.9437 11.0246 27.9437H13.9955C14.444 27.9437 14.6962 27.7195 14.6962 27.2711V16.5367C14.6962 16.0882 14.472 15.864 14.0517 15.864H10.9686C10.5482 15.864 10.324 16.0882 10.324 16.5367V20.5446V23.4594C10.296 24.7207 10.296 25.9819 10.296 27.2151L10.2959 27.215Z" fill="#242423"/>
<path d="M18.7608 27.2149C18.7608 27.7475 18.957 27.9437 19.4896 27.9437H22.4605C22.9089 27.9437 23.1612 27.7194 23.1612 27.271C23.1612 25.197 23.1612 19.7878 23.1332 15.0228C23.1332 11.6876 23.1332 8.6606 23.1051 7.2033C23.1051 6.75486 22.8809 6.53064 22.4605 6.53064H19.3775C18.9571 6.53064 18.7329 6.75486 18.7329 7.2033C18.7329 8.21229 18.7329 12.3323 18.7609 15.9479C18.7609 18.6946 18.789 21.2171 18.789 21.9738V23.4031C18.7609 24.7204 18.7609 25.9817 18.7609 27.2149L18.7608 27.2149Z" fill="#242423"/>
<path d="M27.2246 27.215C27.2246 27.7475 27.4208 27.9437 27.9533 27.9437H30.9242C31.3727 27.9437 31.625 27.7195 31.625 27.271V15.1631C31.625 14.7147 31.4007 14.4905 30.9804 14.4905H27.8973C27.4769 14.4905 27.2527 14.7147 27.2527 15.1631V20.4604V23.4593C27.2247 24.7206 27.2247 25.9818 27.2247 27.215H27.2246Z" fill="#242423"/>
<path d="M5.53166 20.2924H3.99018H2.50469C2.05625 20.2924 1.83203 20.5166 1.83203 20.9931V23.7118V25.4215V27.2713C1.83203 27.7758 2.02822 28 2.53275 28H5.50367C5.98013 28 6.20439 27.7758 6.20439 27.2993V20.9931C6.20439 20.5166 6.00819 20.2924 5.53173 20.2924H5.53166Z" fill="#242423"/>
<path d="M34.0635 11.239C33.0826 11.239 32.1857 10.9868 31.3729 10.5103C31.513 10.23 31.5691 9.92171 31.5691 9.61341C31.5691 8.43625 30.6161 7.45526 29.4109 7.45526C29.1306 7.45526 28.8504 7.51131 28.5981 7.62342C28.514 7.48328 28.4299 7.37117 28.3178 7.23104C26.9164 5.24111 25.459 3.16701 23.0767 2.10203C23.0487 0.952872 22.0958 0 20.9185 0C19.8815 0 19.0127 0.728715 18.8165 1.73771C16.4622 2.46642 14.5563 4.76468 13.0148 6.92283C12.8467 6.86677 12.6785 6.86677 12.4823 6.86677C11.3052 6.86677 10.3242 7.81971 10.3242 9.02492C10.3242 9.47336 10.4643 9.9218 10.7166 10.2862C9.56739 11.9398 8.61452 13.2011 7.60553 13.9298C7.04498 14.3222 6.48443 14.6585 5.89582 14.8827C5.53147 14.21 4.80278 13.7616 4.01801 13.7616C3.31729 13.7616 2.64463 14.0979 2.25231 14.6865C2.11217 14.5744 1.97204 14.4623 1.8319 14.3222C1.60768 14.098 1.3274 13.8737 1.04713 13.6776C0.906989 13.5655 0.710797 13.5374 0.542632 13.5655C0.374467 13.5935 0.206302 13.7056 0.122219 13.8458C0.010109 13.9859 -0.0179186 14.1821 0.010109 14.3502C0.0381365 14.5184 0.150247 14.6866 0.290384 14.7707C0.514604 14.9388 0.738824 15.107 0.963045 15.3312C1.24332 15.5835 1.55162 15.8637 1.88798 16.0879C1.97207 17.209 2.89697 18.1059 4.04613 18.1059C5.11118 18.1059 6.03606 17.2931 6.17623 16.2561C6.961 15.9758 7.71771 15.5834 8.44649 15.0509C9.59565 14.2101 10.6326 12.8928 11.8378 11.1271C12.0621 11.2112 12.2863 11.2392 12.5105 11.2392C13.6877 11.2392 14.6687 10.2863 14.6687 9.08104C14.6687 8.57655 14.5005 8.10011 14.1642 7.70766C15.5095 5.82985 17.1351 3.83987 19.013 3.16721C19.3773 3.89592 20.1341 4.37236 20.9469 4.37236C21.6476 4.37236 22.3203 4.03603 22.7126 3.44742C24.6745 4.40035 25.9918 6.27823 27.253 8.07199C27.3652 8.24015 27.4773 8.38029 27.5894 8.54846C27.3932 8.88479 27.2811 9.27717 27.2811 9.66956C27.2811 10.8467 28.234 11.8277 29.4392 11.8277C29.8036 11.8277 30.1399 11.7436 30.4763 11.5755C31.5693 12.2762 32.8025 12.6405 34.0919 12.6405C34.4562 12.6405 34.7645 12.3322 34.7645 11.9678C34.7365 11.5194 34.4282 11.2391 34.0638 11.2391L34.0635 11.239ZM30.4479 10.0618C30.2798 10.4262 29.9434 10.6785 29.551 10.7345C29.495 10.7345 29.4389 10.7625 29.3829 10.7625C28.7383 10.7625 28.2337 10.258 28.2337 9.61337C28.2337 9.52929 28.2337 9.41718 28.2617 9.3331C28.3458 8.96874 28.6541 8.63238 29.0185 8.52027C29.1306 8.49224 29.2427 8.46421 29.3828 8.46421C30.0274 8.46421 30.532 8.96871 30.532 9.61337C30.56 9.75351 30.532 9.92168 30.4479 10.0618L30.4479 10.0618ZM20.9186 1.00912C21.4231 1.00912 21.8715 1.34545 22.0116 1.82195C22.0396 1.93406 22.0677 2.04617 22.0677 2.15828C22.0677 2.43855 21.9836 2.6908 21.7874 2.88699C21.5632 3.13924 21.2549 3.30741 20.9186 3.30741C20.4982 3.30741 20.1338 3.08319 19.9096 2.71883C19.7975 2.55066 19.7694 2.35447 19.7694 2.15828C19.7694 1.96209 19.8255 1.79392 19.9096 1.62576C20.1058 1.23337 20.4982 1.00915 20.9186 1.00915V1.00912ZM12.4821 10.174C12.398 10.174 12.342 10.174 12.2579 10.1459C11.8655 10.0618 11.5572 9.8096 11.4171 9.44521C11.361 9.30507 11.333 9.16493 11.333 9.0248C11.333 8.3802 11.8375 7.87564 12.4822 7.87564C12.8745 7.87564 13.2389 8.07183 13.4631 8.40816C13.5752 8.60435 13.6593 8.80054 13.6593 9.02476C13.6313 9.64137 13.1268 10.1739 12.4821 10.1739V10.174ZM5.05468 16.3961C4.85849 16.7884 4.4661 17.0407 4.01763 17.0407C3.56916 17.0407 3.1768 16.7884 2.98058 16.3961C2.89649 16.2559 2.86847 16.0878 2.86847 15.8916C2.86847 15.6673 2.92452 15.4712 3.03663 15.275C3.23282 14.9386 3.59718 14.7424 4.01756 14.7424C4.40995 14.7424 4.77427 14.9386 4.99849 15.275C5.1106 15.4712 5.16666 15.6673 5.16666 15.8916C5.16666 16.0597 5.13863 16.2279 5.05455 16.3961H5.05468Z" fill="#242423"/>
</svg>
