<svg width="23" height="30" viewBox="0 0 23 30" fill="none" xmlns="http://www.w3.org/2000/svg">
<path d="M16.4396 1.51838H22.1525C22.5894 1.51838 22.9428 1.87329 22.9428 2.31022V29.2096C22.9428 29.6465 22.5894 30 22.1525 30H0.791842C0.354901 30 0 29.6465 0 29.2096V2.31022C0 1.87328 0.354911 1.51838 0.791842 1.51838H6.50311V0.791842C6.50311 0.354901 6.85656 0 7.29351 0H15.6491C16.086 0 16.4395 0.354912 16.4395 0.791842L16.4396 1.51838ZM5.33954 25.4504C4.9026 25.4504 4.54914 25.097 4.54914 24.66C4.54914 24.2231 4.90259 23.8682 5.33954 23.8682H17.6026C18.0396 23.8682 18.393 24.2231 18.393 24.66C18.393 25.097 18.0396 25.4504 17.6026 25.4504H5.33954ZM5.33954 21.2346C4.9026 21.2346 4.54914 20.8797 4.54914 20.4428C4.54914 20.0058 4.90259 19.6524 5.33954 19.6524H17.6026C18.0396 19.6524 18.393 20.0058 18.393 20.4428C18.393 20.8797 18.0396 21.2346 17.6026 21.2346H5.33954ZM6.50306 3.10062H1.58202V28.418H21.3607V3.10062H16.4396V3.82887C16.4396 4.26581 16.0862 4.62071 15.6492 4.62071H7.29367C6.85673 4.62071 6.50327 4.2658 6.50327 3.82887L6.50306 3.10062ZM14.857 1.58218H8.08503V3.03848H14.857V1.58218ZM6.81056 12.7304C6.47825 12.4513 6.43431 11.9536 6.71492 11.6216C6.99408 11.2878 7.49171 11.2453 7.8238 11.5259L10.7606 14.0001L15.0218 8.96809C15.3025 8.63431 15.8016 8.5933 16.1339 8.8756C16.4677 9.15622 16.5087 9.65533 16.2264 9.98763L11.4585 15.6185L11.457 15.6171C11.1779 15.9494 10.6819 15.9919 10.3496 15.711L6.81056 12.73L6.81056 12.7304Z" fill="#242423"/>
</svg>
