<svg width="226" height="40" viewBox="0 0 226 40" fill="none" xmlns="http://www.w3.org/2000/svg">
<path d="M17.7326 0.0555436C16.0835 0.195902 14.345 0.576875 12.6959 1.13831C11.6429 1.49923 9.47721 2.54189 9.04011 2.90281L8.79175 3.10333L9.18912 2.91284C9.80505 2.61207 11.4144 2.02056 12.229 1.8C14.9709 1.03805 18.5174 0.957848 21.2593 1.59949C22.6501 1.92031 23.9217 2.38148 25.2827 3.04317C33.0016 6.82283 37.1343 15.4248 35.366 24.0268C34.601 27.7262 32.3658 31.6161 29.5842 34.0724C26.2066 37.05 22.2229 38.6842 17.9412 38.8546C15.2788 38.9549 12.6959 38.5138 10.2322 37.5413C8.9507 37.03 9.02024 37.1603 10.4309 37.8821C20.9116 43.2057 33.6672 38.1027 37.7899 26.9442C39.1509 23.2347 39.3794 18.8836 38.3959 15.0739C37.4422 11.3845 35.6739 8.30661 33.0215 5.68993C30.8459 3.55448 28.402 2.04061 25.541 1.03805C23.2561 0.24603 20.087 -0.154994 17.7326 0.0555436Z" fill="#392C57"/>
<path d="M13.461 3.75494C9.98396 4.33642 6.26853 6.4418 4.01345 9.07853C3.24851 9.98084 2.10607 11.6752 1.63916 12.6176C1.20205 13.4898 0.615926 15.1139 0.476846 15.7957C0.377503 16.297 0.377503 16.3671 0.546386 16.4875C0.923889 16.7682 2.27495 16.5677 3.71542 16.0263C5.08635 15.5049 7.94743 13.8908 9.05014 13.0086C9.3581 12.768 9.4177 12.6376 9.47731 12.2065C9.56672 11.5448 9.75547 11.1739 10.2621 10.6325C11.4046 9.43946 13.2126 9.56979 13.9875 10.9132C14.3352 11.5047 14.355 12.4572 14.0371 13.0787C13.5404 14.0312 12.3682 14.7029 11.4344 14.5826C10.9973 14.5224 10.9376 14.5525 10.3317 14.9936C8.6329 16.2368 6.07978 17.6504 4.07306 18.4525C2.59285 19.054 1.92725 19.2244 0.874217 19.3046L0 19.3648V20.5378C0 21.5103 0.0298029 21.7409 0.168883 21.8512C0.576189 22.202 3.36772 21.8612 5.36451 21.2195C7.86795 20.4175 11.5138 18.7633 13.9676 17.3196L14.971 16.7281L15.0902 16.2067C15.2491 15.4849 15.5869 14.9435 16.2426 14.342C16.9578 13.6803 17.6433 13.4196 18.6566 13.4196C19.2924 13.4196 19.5209 13.4697 20.0176 13.7104C21.1104 14.2317 21.6865 15.134 21.6965 16.327C21.7263 18.5928 19.3917 20.4275 17.2559 19.826C16.8982 19.7257 16.8386 19.7458 15.6167 20.4576C10.1727 23.6457 4.11279 25.7611 1.57955 25.3701C1.23185 25.32 0.923889 25.2899 0.90402 25.31C0.824546 25.3802 1.18218 26.3727 1.51995 27.0544C1.94712 27.9166 2.14581 27.9968 3.97371 27.9267C6.31821 27.8364 8.57329 27.2449 12.3185 25.7511C15.0008 24.6784 16.9876 23.6959 19.9282 22.0116L21.3388 21.2095L21.3985 20.7884C21.5574 19.6154 22.6005 18.282 23.8125 17.7006C24.4383 17.3998 24.5576 17.3797 25.5311 17.3797C26.4848 17.3797 26.6239 17.3998 27.1504 17.6705C27.9153 18.0715 28.6207 18.8334 28.8988 19.5854C29.2267 20.4576 29.1671 21.5805 28.73 22.4627C27.8955 24.1771 26.0179 25.1696 24.1801 24.8588L23.435 24.7385L21.776 25.6809C15.3783 29.3403 8.86138 31.6361 5.43405 31.4356C4.80819 31.4056 4.56977 31.4256 4.59957 31.5058C4.66911 31.7163 6.36788 33.1701 7.18249 33.7014C11.186 36.3582 15.8154 37.1302 20.405 35.907C23.3058 35.1451 25.7298 33.6914 27.9352 31.4056C28.3028 31.0246 28.7598 30.4832 28.9684 30.2125C29.2863 29.7814 29.2068 29.8315 28.4518 30.5835C27.3392 31.6662 27.0511 31.9068 26.1073 32.5485C25.0543 33.2603 24.5576 33.531 23.3654 34.0423C21.2296 34.9446 19.5805 35.2253 16.938 35.1451C15.4876 35.105 14.9511 35.0448 14.0868 34.8343C12.2291 34.3932 10.5502 33.6814 9.21902 32.7991C8.47395 32.3079 8.3448 32.1675 8.61303 32.1675C8.81171 32.1675 9.92435 31.8868 11.0072 31.566L11.7324 31.3554L12.5967 31.7063C13.759 32.1775 14.7425 32.4282 15.9942 32.5785C21.1898 33.1801 26.1371 30.6135 28.7498 25.9717C29.9519 23.8362 30.4784 21.5905 30.3691 19.0941C30.1605 14.2517 27.5676 10.1011 23.3754 7.92559C21.468 6.94308 20.2361 6.62226 17.9711 6.53203C15.5869 6.45183 14.057 6.74257 12.0503 7.66492C11.0469 8.1261 9.52698 9.16876 8.62296 10.0109C7.74874 10.823 6.5765 12.3469 6.06985 13.3294C5.73208 13.9811 5.71221 14.0011 4.82806 14.4222C4.33135 14.6628 3.64588 14.9636 3.30812 15.0839L2.68226 15.3245V15.0638C2.68226 14.7731 3.23858 13.3093 3.68562 12.407C4.27174 11.214 5.40425 9.66002 6.45729 8.5973C8.71237 6.31147 11.3847 4.84773 14.5041 4.18604C15.3385 4.0156 15.9048 3.96548 17.3353 3.95545C18.3188 3.94543 19.3719 3.9755 19.6699 4.0156C20.4448 4.11586 19.8586 3.9354 18.7758 3.74491C17.7128 3.55443 14.5835 3.55443 13.461 3.75494Z" fill="url(#paint0_linear_19_45)"/>
<path d="M11.325 11.1239C10.6395 11.4046 10.2223 12.2267 10.4309 12.8683C10.5998 13.3796 10.9574 13.6202 11.5535 13.6202C12.4674 13.6202 13.0933 12.9485 12.984 12.0963C12.9244 11.6352 12.6959 11.3444 12.2489 11.1539C11.8813 10.9935 11.6727 10.9835 11.325 11.1239Z" fill="url(#paint1_linear_19_45)"/>
<path d="M17.4346 15.2142C16.9379 15.4448 16.4312 16.0062 16.2822 16.5175C15.9643 17.6003 16.769 18.6329 17.9413 18.6329C19.6003 18.6329 20.5738 16.6479 19.4513 15.5551C18.8751 14.9936 18.1697 14.8733 17.4346 15.2142Z" fill="url(#paint2_linear_19_45)"/>
<path d="M24.1899 19.425C22.9581 19.9864 22.4216 21.2897 22.9482 22.3925C23.7032 23.9565 26.1669 23.6959 26.8921 21.9715C27.051 21.5805 27.061 20.8586 26.9119 20.4676C26.7729 20.0866 26.2463 19.5453 25.839 19.3748C25.3821 19.1843 24.6668 19.2044 24.1899 19.425Z" fill="url(#paint3_linear_19_45)"/>
<path d="M60.5391 15.3672L57.4062 27H54.0859L52 19.4219L49.9688 27H46.6484L43.5156 15.3672H46.6484L48.4375 23.375L50.5781 15.3672H53.5703L55.6094 23.375L57.4844 15.3672H60.5391ZM70.9609 27H62.5469V15.3672H70.9609V17.6172H65.5312V19.625H70.5703V21.875H65.5312V24.75H70.9609V27ZM83.4375 23.4375C83.4375 24 83.3229 24.5026 83.0938 24.9453C82.8698 25.388 82.5599 25.7552 82.1641 26.0469C81.7057 26.3906 81.2005 26.6354 80.6484 26.7812C80.1016 26.9271 79.4062 27 78.5625 27H73.4844V15.3672H78C78.9375 15.3672 79.6224 15.3984 80.0547 15.4609C80.4922 15.5234 80.9245 15.6615 81.3516 15.875C81.7943 16.099 82.1224 16.401 82.3359 16.7812C82.5547 17.1562 82.6641 17.5859 82.6641 18.0703C82.6641 18.6328 82.5156 19.1302 82.2188 19.5625C81.9219 19.9896 81.5026 20.3229 80.9609 20.5625V20.625C81.7214 20.776 82.3229 21.0885 82.7656 21.5625C83.2135 22.0365 83.4375 22.6615 83.4375 23.4375ZM79.5938 18.6562C79.5938 18.4635 79.5443 18.2708 79.4453 18.0781C79.3516 17.8854 79.1823 17.7422 78.9375 17.6484C78.7188 17.5651 78.4453 17.5208 78.1172 17.5156C77.7943 17.5052 77.3385 17.5 76.75 17.5H76.4688V19.9609H76.9375C77.4115 19.9609 77.8151 19.9531 78.1484 19.9375C78.4818 19.9219 78.7448 19.8698 78.9375 19.7812C79.2083 19.6615 79.3854 19.5078 79.4688 19.3203C79.5521 19.1276 79.5938 18.9062 79.5938 18.6562ZM80.3281 23.3906C80.3281 23.0208 80.2552 22.737 80.1094 22.5391C79.9688 22.3359 79.7266 22.1849 79.3828 22.0859C79.1484 22.0182 78.8255 21.9818 78.4141 21.9766C78.0026 21.9714 77.5729 21.9688 77.125 21.9688H76.4688V24.8672H76.6875C77.5312 24.8672 78.1354 24.8646 78.5 24.8594C78.8646 24.8542 79.2005 24.7865 79.5078 24.6562C79.8203 24.526 80.0339 24.3542 80.1484 24.1406C80.2682 23.9219 80.3281 23.6719 80.3281 23.3906Z" fill="#392C57"/>
<path d="M97.9141 27H94.9141V17.6172H90.4844V27H87.4844V15.3672H97.9141V27ZM109.305 27H100.891V15.3672H109.305V17.6172H103.875V19.625H108.914V21.875H103.875V24.75H109.305V27ZM121.43 19.0391C121.43 19.5599 121.339 20.0703 121.156 20.5703C120.974 21.0651 120.714 21.4818 120.375 21.8203C119.911 22.2786 119.393 22.625 118.82 22.8594C118.253 23.0938 117.544 23.2109 116.695 23.2109H114.828V27H111.828V15.3672H116.766C117.505 15.3672 118.128 15.4323 118.633 15.5625C119.143 15.6875 119.594 15.8776 119.984 16.1328C120.453 16.4401 120.81 16.8333 121.055 17.3125C121.305 17.7917 121.43 18.3672 121.43 19.0391ZM118.328 19.1094C118.328 18.7812 118.24 18.5 118.062 18.2656C117.885 18.026 117.68 17.8594 117.445 17.7656C117.133 17.6406 116.828 17.5729 116.531 17.5625C116.234 17.5469 115.839 17.5391 115.344 17.5391H114.828V21.0234H115.688C116.198 21.0234 116.617 20.9922 116.945 20.9297C117.279 20.8672 117.557 20.7422 117.781 20.5547C117.974 20.388 118.112 20.1901 118.195 19.9609C118.284 19.7266 118.328 19.4427 118.328 19.1094ZM128.82 27.2266C127.956 27.2266 127.156 27.099 126.422 26.8438C125.693 26.5885 125.065 26.2083 124.539 25.7031C124.013 25.1979 123.604 24.5677 123.312 23.8125C123.026 23.0573 122.883 22.1849 122.883 21.1953C122.883 20.2734 123.021 19.4375 123.297 18.6875C123.573 17.9375 123.974 17.2943 124.5 16.7578C125.005 16.2422 125.63 15.8438 126.375 15.5625C127.125 15.2812 127.943 15.1406 128.828 15.1406C129.318 15.1406 129.758 15.1693 130.148 15.2266C130.544 15.2786 130.909 15.349 131.242 15.4375C131.591 15.5365 131.906 15.6484 132.188 15.7734C132.474 15.8932 132.724 16.0052 132.938 16.1094V18.9297H132.594C132.448 18.8047 132.263 18.6562 132.039 18.4844C131.82 18.3125 131.57 18.1432 131.289 17.9766C131.003 17.8099 130.693 17.6693 130.359 17.5547C130.026 17.4401 129.669 17.3828 129.289 17.3828C128.867 17.3828 128.466 17.4505 128.086 17.5859C127.706 17.7161 127.354 17.9349 127.031 18.2422C126.724 18.5391 126.474 18.9323 126.281 19.4219C126.094 19.9115 126 20.5052 126 21.2031C126 21.9323 126.102 22.5417 126.305 23.0312C126.513 23.5208 126.773 23.9062 127.086 24.1875C127.404 24.474 127.758 24.6797 128.148 24.8047C128.539 24.9245 128.924 24.9844 129.305 24.9844C129.669 24.9844 130.029 24.9297 130.383 24.8203C130.742 24.7109 131.073 24.5625 131.375 24.375C131.63 24.224 131.867 24.0625 132.086 23.8906C132.305 23.7188 132.484 23.5703 132.625 23.4453H132.938V26.2266C132.646 26.3568 132.367 26.4792 132.102 26.5938C131.836 26.7083 131.557 26.8073 131.266 26.8906C130.885 27 130.529 27.0833 130.195 27.1406C129.862 27.1979 129.404 27.2266 128.82 27.2266ZM145.57 27H142.57V17.6172H138.141V27H135.141V15.3672H145.57V27ZM156.961 27H148.547V15.3672H156.961V17.6172H151.531V19.625H156.57V21.875H151.531V24.75H156.961V27ZM170.336 27H166.656L163.219 22.3047H162.484V27H159.484V15.3672H162.484V20.1094C162.729 20.099 162.932 20.0755 163.094 20.0391C163.255 19.9974 163.404 19.9271 163.539 19.8281C163.68 19.724 163.831 19.5703 163.992 19.3672C164.154 19.1589 164.323 18.9036 164.5 18.6016C164.609 18.4141 164.732 18.1927 164.867 17.9375C165.008 17.6771 165.125 17.4635 165.219 17.2969C165.62 16.5938 166.042 16.0938 166.484 15.7969C166.927 15.4948 167.596 15.3438 168.492 15.3438C168.758 15.3438 168.995 15.349 169.203 15.3594C169.411 15.3646 169.565 15.3672 169.664 15.3672V17.8906H168.797C168.37 17.8906 168.036 18 167.797 18.2188C167.562 18.4375 167.302 18.8229 167.016 19.375C166.729 19.9219 166.495 20.3073 166.312 20.5312C166.13 20.75 165.953 20.9062 165.781 21L170.336 27ZM180.93 17.6172H177.297V27H174.297V17.6172H170.664V15.3672H180.93V17.6172ZM193.344 27H190.422V19.2578L185.594 27H182.734V15.3672H185.656V22.375L190.148 15.3672H193.344V27ZM206.219 23.4375C206.219 24 206.104 24.5026 205.875 24.9453C205.651 25.388 205.341 25.7552 204.945 26.0469C204.487 26.3906 203.982 26.6354 203.43 26.7812C202.883 26.9271 202.188 27 201.344 27H196.266V15.3672H200.781C201.719 15.3672 202.404 15.3984 202.836 15.4609C203.273 15.5234 203.706 15.6615 204.133 15.875C204.576 16.099 204.904 16.401 205.117 16.7812C205.336 17.1562 205.445 17.5859 205.445 18.0703C205.445 18.6328 205.297 19.1302 205 19.5625C204.703 19.9896 204.284 20.3229 203.742 20.5625V20.625C204.503 20.776 205.104 21.0885 205.547 21.5625C205.995 22.0365 206.219 22.6615 206.219 23.4375ZM202.375 18.6562C202.375 18.4635 202.326 18.2708 202.227 18.0781C202.133 17.8854 201.964 17.7422 201.719 17.6484C201.5 17.5651 201.227 17.5208 200.898 17.5156C200.576 17.5052 200.12 17.5 199.531 17.5H199.25V19.9609H199.719C200.193 19.9609 200.596 19.9531 200.93 19.9375C201.263 19.9219 201.526 19.8698 201.719 19.7812C201.99 19.6615 202.167 19.5078 202.25 19.3203C202.333 19.1276 202.375 18.9062 202.375 18.6562ZM203.109 23.3906C203.109 23.0208 203.036 22.737 202.891 22.5391C202.75 22.3359 202.508 22.1849 202.164 22.0859C201.93 22.0182 201.607 21.9818 201.195 21.9766C200.784 21.9714 200.354 21.9688 199.906 21.9688H199.25V24.8672H199.469C200.312 24.8672 200.917 24.8646 201.281 24.8594C201.646 24.8542 201.982 24.7865 202.289 24.6562C202.602 24.526 202.815 24.3542 202.93 24.1406C203.049 23.9219 203.109 23.6719 203.109 23.3906ZM219.203 27H216.102L215.297 24.6484H210.984L210.18 27H207.156L211.453 15.3672H214.906L219.203 27ZM214.57 22.5156L213.141 18.3438L211.711 22.5156H214.57Z" fill="#7E62BF"/>
<defs>
<linearGradient id="paint0_linear_19_45" x1="27.1951" y1="17.1166" x2="1.01664" y2="27.3298" gradientUnits="userSpaceOnUse">
<stop stop-color="#392C57"/>
<stop offset="1" stop-color="#A883FF"/>
</linearGradient>
<linearGradient id="paint1_linear_19_45" x1="13.2622" y1="11.4021" x2="8.61797" y2="14.371" gradientUnits="userSpaceOnUse">
<stop stop-color="#392C57"/>
<stop offset="1" stop-color="#A883FF"/>
</linearGradient>
<linearGradient id="paint2_linear_19_45" x1="19.9679" y1="16.2143" x2="13.5609" y2="20.5209" gradientUnits="userSpaceOnUse">
<stop stop-color="#392C57"/>
<stop offset="1" stop-color="#A883FF"/>
</linearGradient>
<linearGradient id="paint3_linear_19_45" x1="26.8225" y1="20.1242" x2="19.9695" y2="24.4287" gradientUnits="userSpaceOnUse">
<stop stop-color="#392C57"/>
<stop offset="1" stop-color="#A883FF"/>
</linearGradient>
</defs>
</svg>
