<svg width="49" height="50" viewBox="0 0 49 50" fill="none" xmlns="http://www.w3.org/2000/svg">
<path d="M22.2795 0.0690742C20.2076 0.243816 18.0233 0.718114 15.9514 1.41708C14.6283 1.86642 11.9074 3.1645 11.3582 3.61383L11.0461 3.86346L11.5454 3.62631C12.3193 3.25187 14.3413 2.51546 15.3648 2.24086C18.8097 1.29227 23.2656 1.19241 26.7105 1.99123C28.4579 2.39064 30.0555 2.96479 31.7655 3.78857C41.4637 8.49411 46.656 19.2033 44.4343 29.9124C43.4732 34.5181 40.6648 39.361 37.17 42.4189C32.9263 46.126 27.9212 48.1604 22.5416 48.3726C19.1966 48.4974 15.9514 47.9483 12.856 46.7375C11.2458 46.101 11.3332 46.2633 13.1056 47.1619C26.2736 53.7896 42.2999 47.4365 47.4798 33.5446C49.1897 28.9264 49.4768 23.5094 48.2411 18.7664C47.0429 14.1732 44.8212 10.3414 41.4886 7.0837C38.7552 4.42513 35.6847 2.54042 32.09 1.29227C29.2193 0.306223 25.2377 -0.193038 22.2795 0.0690742Z" fill="#7E62BF"/>
<path d="M16.9125 4.67476C12.5439 5.39869 7.87585 8.01982 5.04254 11.3025C4.08146 12.4258 2.64609 14.5352 2.05945 15.7084C1.51027 16.7943 0.773856 18.8163 0.599114 19.6651C0.474299 20.2892 0.474299 20.3765 0.686485 20.5263C1.16078 20.8758 2.85827 20.6262 4.6681 19.9522C6.39055 19.3031 9.98523 17.2936 11.3707 16.1952C11.7576 15.8957 11.8325 15.7334 11.9074 15.1967C12.0197 14.3729 12.2569 13.9111 12.8934 13.2371C14.3288 11.7518 16.6004 11.9141 17.574 13.5866C18.0109 14.323 18.0358 15.5087 17.6364 16.2826C17.0123 17.4683 15.5395 18.3046 14.3663 18.1548C13.8171 18.0799 13.7422 18.1174 12.9808 18.6666C10.8465 20.2143 7.6387 21.9742 5.11743 22.9727C3.25768 23.7216 2.42142 23.9338 1.09838 24.0336L0 24.1085V25.5689C0 26.7796 0.0374446 27.0666 0.212186 27.2039C0.723929 27.6408 4.23124 27.2164 6.74003 26.4176C9.88538 25.4191 14.4661 23.3596 17.549 21.5623L18.8097 20.8259L18.9595 20.1768C19.1592 19.2782 19.5835 18.6042 20.4073 17.8553C21.306 17.0315 22.1672 16.707 23.4403 16.707C24.2392 16.707 24.5262 16.7694 25.1503 17.0689C26.5233 17.718 27.2472 18.8413 27.2597 20.3266C27.2971 23.1474 24.364 25.4316 21.6804 24.6827C21.2311 24.5579 21.1562 24.5828 19.621 25.469C12.7811 29.4381 5.16736 32.0717 1.98456 31.585C1.54771 31.5226 1.16078 31.4851 1.13582 31.5101C1.03597 31.5974 1.4853 32.8331 1.90968 33.6819C2.44638 34.7553 2.69601 34.8551 4.99262 34.7678C7.93826 34.6554 10.7716 33.919 15.4771 32.0593C18.8471 30.7237 21.3434 29.5005 25.038 27.4036L26.8103 26.4051L26.8852 25.8809C27.0849 24.4206 28.3955 22.7605 29.9183 22.0366C30.7046 21.6621 30.8544 21.6372 32.0776 21.6372C33.2758 21.6372 33.4505 21.6621 34.1121 21.9991C35.0731 22.4984 35.9593 23.447 36.3088 24.3831C36.7207 25.469 36.6458 26.8669 36.0966 27.9653C35.0482 30.0997 32.6892 31.3353 30.3801 30.9484L29.444 30.7986L27.3595 31.9719C19.3214 36.5277 11.1335 39.3859 6.8274 39.1363C6.04107 39.0989 5.74151 39.1238 5.77895 39.2237C5.86632 39.4858 8.00067 41.2956 9.02415 41.9571C14.0542 45.2647 19.8706 46.2258 25.6371 44.7031C29.2817 43.7545 32.3272 41.9446 35.0981 39.0989C35.5599 38.6246 36.1341 37.9506 36.3962 37.6135C36.7956 37.0768 36.6957 37.1393 35.7471 38.0754C34.3492 39.4234 33.9872 39.7229 32.8015 40.5217C31.4784 41.4079 30.8544 41.7449 29.3566 42.3815C26.6731 43.5048 24.6011 43.8543 21.281 43.7545C19.4587 43.7045 18.7847 43.6297 17.6988 43.3675C15.3648 42.8184 13.2554 41.9322 11.5829 40.8338C10.6468 40.2222 10.4845 40.0474 10.8215 40.0474C11.0711 40.0474 12.4691 39.698 13.8295 39.2986L14.7407 39.0364L15.8266 39.4733C17.2869 40.0599 18.5226 40.372 20.0953 40.5592C26.6231 41.3081 32.8389 38.1128 36.1216 32.3339C37.6318 29.6753 38.2934 26.8794 38.1561 23.7715C37.894 17.7429 34.6363 12.5756 29.3691 9.86708C26.9726 8.64389 25.4249 8.24448 22.5791 8.13215C19.5835 8.0323 17.6614 8.39426 15.1401 9.54256C13.8795 10.1167 11.9698 11.4148 10.834 12.4632C9.7356 13.4742 8.26278 15.3714 7.62622 16.5946C7.20185 17.4059 7.17689 17.4309 6.06603 17.9551C5.44195 18.2547 4.58073 18.6291 4.15635 18.7789L3.37002 19.0785V18.7539C3.37002 18.392 4.06898 16.5697 4.63065 15.4463C5.36706 13.961 6.78996 12.0264 8.113 10.7033C10.9463 7.85756 14.3038 6.03525 18.223 5.21147C19.2715 4.99928 19.9829 4.93688 21.7803 4.9244C23.016 4.91191 24.339 4.94936 24.7135 4.99928C25.687 5.1241 24.9506 4.89943 23.5901 4.66228C22.2546 4.42513 18.3229 4.42513 16.9125 4.67476Z" fill="#7E62BF"/>
<path d="M14.229 13.8486C13.3677 14.1981 12.8435 15.2216 13.1056 16.0204C13.3178 16.657 13.7671 16.9565 14.516 16.9565C15.6643 16.9565 16.4507 16.1203 16.3134 15.0593C16.2385 14.4852 15.9514 14.1232 15.3897 13.8861C14.9279 13.6864 14.6658 13.6739 14.229 13.8486Z" fill="#7E62BF"/>
<path d="M21.9051 18.9411C21.281 19.2281 20.6445 19.9271 20.4572 20.5637C20.0578 21.9117 21.0688 23.1973 22.5417 23.1973C24.6261 23.1973 25.8493 20.7259 24.4389 19.3654C23.7149 18.6665 22.8287 18.5167 21.9051 18.9411Z" fill="#7E62BF"/>
<path d="M30.3926 24.1834C28.8448 24.8824 28.1708 26.505 28.8324 27.8779C29.781 29.825 32.8764 29.5005 33.7875 27.3537C33.9872 26.8669 33.9997 25.9683 33.8125 25.4815C33.6378 25.0072 32.9762 24.3332 32.4645 24.121C31.8903 23.8838 30.9917 23.9088 30.3926 24.1834Z" fill="#7E62BF"/>
</svg>
