<svg width="16" height="11" viewBox="0 0 16 11" fill="none" xmlns="http://www.w3.org/2000/svg">
<path d="M1.79332 0.864014C1.06043 0.864014 0.459961 1.46449 0.459961 2.19737V8.86401C0.459961 9.5969 1.06043 10.1974 1.79332 10.1974H14.1266C14.8595 10.1974 15.46 9.5969 15.46 8.86401V2.19737C15.46 1.46449 14.8595 0.864014 14.1266 0.864014H1.79332ZM1.78809 1.53062H1.79332H14.1266H14.1371L8.43917 6.99935C8.16271 7.26453 7.76813 7.26453 7.4912 6.99935L1.78809 1.53062ZM1.19961 1.8952L4.90793 5.44221L1.19455 9.15559C1.15246 9.06747 1.12689 8.97027 1.12689 8.8639V2.19726C1.12689 2.08682 1.15456 1.9859 1.19978 1.89524L1.19961 1.8952ZM14.7204 1.8952C14.7657 1.98588 14.7933 2.08679 14.7933 2.19722V8.86386C14.7933 8.97012 14.7677 9.06731 14.7256 9.15555L11.0173 5.44723L14.7204 1.8952ZM5.38709 5.9056L7.03295 7.47857C7.5539 7.97744 8.37675 7.97812 8.89746 7.47857L10.5328 5.9056L14.1525 9.52523C14.1435 9.52523 14.1355 9.53034 14.1264 9.53034H1.79315C1.78408 9.53034 1.77606 9.52546 1.76711 9.52523L5.38709 5.9056Z" fill="#392C57"/>
</svg>
