<svg width="28" height="28" viewBox="0 0 28 28" fill="none" xmlns="http://www.w3.org/2000/svg">
<path d="M27.9924 22.7101C27.932 21.8977 27.5168 21.1678 26.8243 20.6556L22.734 17.6327C22.1119 17.173 21.3107 16.9199 20.4787 16.9199C19.5558 16.9199 18.7002 17.2223 18.0697 17.771C17.736 18.0619 17.2845 18.2219 16.8001 18.2219C16.2577 18.2219 15.731 18.0181 15.3553 17.6629L14.571 16.92C13.5816 15.9837 12.016 14.4178 11.081 13.4296L10.3387 12.6458C9.6405 11.9083 9.59127 10.6652 10.23 9.93105C11.3178 8.68226 11.3788 6.6331 10.3683 5.26678L7.34505 1.17635C6.79269 0.428867 5.97122 0 5.09095 0C4.35075 0 3.63896 0.30473 3.0851 0.858584L1.01578 2.928C0.965647 2.97814 0.92367 3.03552 0.891655 3.09894C0.826726 3.22608 -0.686584 6.25587 0.378863 9.70366C0.392151 9.74655 0.409666 9.78823 0.430807 9.82749C0.535602 10.0202 3.05816 14.605 8.22691 19.7741C13.3959 24.9433 17.9805 27.4657 18.173 27.5705C18.2123 27.592 18.254 27.6095 18.2966 27.6225C19.1071 27.8732 19.963 28 20.8418 28C23.1301 28 24.83 27.1462 24.901 27.1096C24.9641 27.0776 25.0218 27.0356 25.0719 26.9852L27.1415 24.9161C27.7513 24.3063 28.0533 23.5229 27.9923 22.7102L27.9924 22.7101ZM26.1852 23.9589L24.1981 25.9459C23.8532 26.1026 22.5341 26.6468 20.842 26.6468C20.1232 26.6468 19.4241 26.5472 18.7627 26.35C18.2179 26.0422 13.9002 23.5337 9.18303 18.8171C4.46702 14.1006 1.95865 9.78286 1.65056 9.23779C0.880166 6.65106 1.84052 4.27965 2.05554 3.8013L4.04152 1.81523C4.3393 1.51714 4.71196 1.35315 5.09033 1.35315C5.54333 1.35315 5.95738 1.57603 6.25635 1.98013L9.27961 6.07056C9.90596 6.91801 9.87365 8.2786 9.20895 9.04209C8.11421 10.2997 8.17978 12.3334 9.35541 13.5756L10.0977 14.3594C11.0469 15.3627 12.6357 16.9521 13.6405 17.9023L14.4248 18.6452C15.0487 19.2359 15.9143 19.5748 16.7997 19.5748C17.6112 19.5748 18.378 19.2963 18.9581 18.791C19.3365 18.4615 19.8906 18.2725 20.4784 18.2725C21.0232 18.2725 21.5387 18.4313 21.9297 18.7204L26.0197 21.7438C26.3911 22.018 26.6122 22.3973 26.643 22.8111C26.6741 23.2249 26.5113 23.6326 26.1849 23.9588L26.1852 23.9589Z" fill="#229BA6"/>
</svg>
