<svg width="28" height="18" viewBox="0 0 28 18" fill="none" xmlns="http://www.w3.org/2000/svg">
<path d="M2.48893 0C1.12088 0 0 1.11812 0 2.4828V14.8965C0 16.2612 1.12088 17.3793 2.48893 17.3793H25.5111C26.8791 17.3793 28 16.2612 28 14.8965V2.4828C28 1.11812 26.8791 0 25.5111 0H2.48893ZM2.47917 1.24126H2.48893H25.5111H25.5306L14.8945 11.4244C14.3785 11.9182 13.6419 11.9182 13.125 11.4244L2.47917 1.24126ZM1.38067 1.92014L8.30287 8.5249L1.37123 15.4394C1.29267 15.2754 1.24493 15.0944 1.24493 14.8963V2.48259C1.24493 2.27694 1.29658 2.08903 1.381 1.9202L1.38067 1.92014ZM26.6195 1.92014C26.7041 2.08899 26.7555 2.27689 26.7555 2.48252V14.8962C26.7555 15.0941 26.7078 15.2751 26.6292 15.4394L19.707 8.53425L26.6195 1.92014ZM9.19731 9.38776L12.2696 12.3167C13.242 13.2457 14.778 13.2469 15.75 12.3167L18.8027 9.38776L25.5594 16.1277C25.5426 16.1277 25.5277 16.1373 25.5107 16.1373H2.48861C2.47169 16.1373 2.45671 16.1282 2.44 16.1277L9.19731 9.38776Z" fill="#229BA6"/>
</svg>
