<svg width="15" height="15" viewBox="0 0 15 15" fill="none" xmlns="http://www.w3.org/2000/svg">
<path d="M1.89658 0.263298C0.908397 1.30567 0.162604 2.27756 0 3.2304C0.02693 5.38 2.05405 8.04178 4.48995 10.474C6.91299 12.8935 9.71937 15.2819 11.7595 14.9728C12.7183 14.8098 13.6966 14.0582 14.7477 13.0626C15.0853 12.7407 15.0851 12.0479 14.741 11.7043L12.6664 9.63287C12.3086 9.27557 11.6146 9.2754 11.1588 9.51657L9.76221 10.5391C9.0169 11.1741 7.44658 9.61603 6.40417 8.5752C5.36417 7.53678 3.77721 6.12678 4.44616 5.21579L5.46727 3.82521C5.70536 3.37476 5.70519 2.68197 5.36401 2.3413L3.29758 0.277991C2.92896 -0.0901103 2.23497 -0.0902816 1.89654 0.263411L1.89658 0.263298Z" fill="#392C57"/>
</svg>
